PathFileType	4	(X/Y/Z)	C:/Users/beibeiliu/ov580/test_trc/User1\sequence.29_training_dense_right.trc
DataRate	CameraRate	NumFrames	NumMarkers	Units	OrigDataRate	OrigDataStartFrame	OrigNumFrames
120	120	20	19	mm	120	58	228
Frame#	Time	ThumbCMC			ThumbMCP			ThumbIP			ThumbTip			IndexMCP			IndexPIP			IndexTip			MiddleMCP			MiddlePIP			MiddleTip			RingMCP			RingPIP			RingTip			PinkyMCP			PinkyPIP			PinkyTip			BackHand1			BackHand2			BackHand3	
		X0	Y0	Z0	X1	Y1	Z1	X2	Y2	Z2	X3	Y3	Z3	X4	Y4	Z4	X5	Y5	Z5	X6	Y6	Z6	X7	Y7	Z7	X8	Y8	Z8	X9	Y9	Z9	X10	Y10	Z10	X11	Y11	Z11	X12	Y12	Z12	X13	Y13	Z13	X14	Y14	Z14	X15	Y15	Z15	X16	Y16	Z16	X17	Y17	Z17	X18	Y18	Z18	
57	0.475	147.756	-19.541	64.7468	130.56	-34.3363	30.7654	125.314	-42.1089	3.11303	122.164	-51.1985	-12.1675	180.421	-0.888074	-10.4078	184.656	-3.3864	-36.1664	189.345	-8.22597	-62.6859	194.001	-23.654	-19.3951	180.277	-33.8583	-47.6274	165.712	-54.3638	-65.7195	217.696	-37.1792	-7.10488	219.748	-37.2326	-35.2608	216.383	-40.1134	-62.3791	230.682	-58.7872	15.2191	238.865	-57.8533	1.44741	260.747	-52.6901	-12.8398	212.582	-31.0302	51.1722	213.312	-34.0601	81.0956	190.497	-8.7106	62.6644	
58	0.483333	148.537	-18.6631	62.4158	128.552	-34.7824	35.0005	121.258	-40.8033	8.87548	119.508	-51.1373	-13.1779	181.643	-2.11771	-9.78639	182.875	0.137143	-37.7764	187.498	-4.70406	-61.5644	195.461	-21.1168	-17.324	185.14	-33.7087	-49.1617	165.825	-50.2929	-70.4823	215.804	-33.069	-7.37843	221.876	-38.5188	-36.5874	219.789	-40.5868	-59.828	229.745	-58.7448	16.8394	241.321	-59.7437	2.35077	260.295	-54.0648	-9.73258	213.556	-34.4852	52.2747	212.483	-34.5675	86.451	189.561	-8.20064	64.8299	
59	0.491667	148.804	-18.9104	63.3541	125.615	-32.1644	35.0205	125.52	-41.0356	7.41045	116.077	-49.309	-10.4831	179.581	1.26145	-9.81301	184.739	-0.354178	-35.4225	191.879	-4.45422	-61.5479	197.244	-20.1681	-20.5318	189.5	-28.7841	-49.4113	176.724	-44.6049	-71.4438	220.297	-35.1728	-7.3059	225.496	-37.2944	-34.9389	225.626	-42.4257	-58.9248	229.408	-59.2705	18.995	241.621	-61.8633	4.72572	257.045	-55.4676	-10.4942	213.337	-32.3053	47.607	212.479	-33.3043	85.7858	190.577	-8.04649	65.2476	
60	0.5	145.031	-17.3457	65.2231	129.873	-32.7537	36.0574	120.281	-38.5606	10.0114	109.545	-46.5253	-10.5402	183.375	0.626854	-11.7228	184.641	2.52027	-38.7826	190.72	1.60473	-63.3638	199.043	-17.0718	-16.2113	192.303	-22.9319	-46.5621	184.879	-42.5309	-77.6967	222.345	-35.7725	-9.15623	226.49	-37.4532	-33.3839	229.197	-41.6389	-59.7391	229.847	-61.1303	19.1664	241.224	-59.5353	0.100339	259.326	-58.3805	-7.81863	215.505	-32.7772	49.7527	213.286	-33.0941	84.4443	190.874	-7.03062	61.5562	
61	0.508333	146.575	-16.4091	61.7254	123.932	-30.774	38.207	115.799	-36.4075	10.3924	110.451	-44.423	-8.10039	181.073	1.43633	-7.23235	187.922	1.23908	-36.7842	189.687	2.40693	-59.3555	203.271	-19.6026	-14.5698	197.173	-20.4507	-47.7846	191.271	-32.385	-75.9371	220.15	-33.464	-6.23187	227.314	-34.4045	-30.0676	232.153	-39.7979	-55.9885	230.03	-58.2162	15.5934	240.543	-62.4009	5.03321	262.33	-55.6832	-11.3629	214.321	-33.8494	48.7683	212.656	-33.2888	83.534	187.513	-5.64812	62.6055	
62	0.516667	145.149	-15.109	63.0164	125.665	-30.4686	37.4715	115.928	-34.8796	8.29315	105.819	-41.7338	-8.42019	183.223	-0.632245	-7.24408	187.798	0.676597	-32.7127	191.274	4.89683	-59.9646	205.674	-16.7816	-18.949	201.454	-18.1567	-45.6233	200.494	-29.7435	-77.6712	223.121	-36.0106	-3.01085	229.528	-32.4037	-33.2634	236.196	-37.9503	-59.3035	230.51	-61.1278	19.6005	242.621	-61.3552	2.4744	260.803	-55.8943	-12.8577	212.871	-33.016	52.0238	213.372	-34.2572	86.3553	188.384	-8.39161	61.2203	
63	0.525	144.602	-14.8613	61.403	125.364	-29.386	36.4181	113.604	-33.3346	11.3697	102.266	-41.0323	-9.78564	184.32	-0.411283	-7.93024	185.521	7.18312	-35.2769	195.034	3.59499	-60.7016	206.783	-17.0314	-15.1662	206.275	-17.2605	-42.2289	208.613	-25.8005	-77.6534	223.861	-36.2347	-1.76861	232.586	-35.5282	-29.669	237.027	-38.917	-54.4539	230.132	-60.851	19.3871	239.384	-60.3923	3.94765	260.254	-56.8328	-9.47663	215.052	-31.6643	49.2738	211.327	-33.6921	86.5142	186.418	-7.06584	61.1629	
64	0.533333	145.272	-15.7813	67.1189	123.082	-27.7134	35.7064	111.617	-33.5886	15.194	102.526	-40.377	-7.59467	181.373	3.6341	-5.87488	186.421	7.90345	-36.5113	195.269	5.64162	-60.0275	206.068	-12.1874	-13.9823	211.592	-15.5944	-42.2931	211.869	-18.3236	-73.0873	223.697	-34.5058	-2.23838	235.499	-35.0525	-32.6752	236.488	-37.0054	-53.3688	229.54	-58.3457	17.5971	242.9	-60.4067	2.65651	261.278	-57.6492	-8.52913	215.27	-33.0972	48.9768	212.59	-33.3228	85.5752	188.008	-8.53332	63.6631	
65	0.541667	144.411	-14.4018	64.8228	126.219	-29.5321	38.0945	113.1	-33.2656	14.9226	102.909	-41.4602	-4.05824	183.031	2.97123	-5.54117	190.923	4.45597	-34.7933	196.319	5.86498	-56.4702	213.051	-13.2013	-14.1233	215.64	-12.7419	-39.3829	217.566	-14.1099	-69.0742	223.132	-32.6197	-4.91034	231.735	-33.0629	-31.1675	235.534	-37.0405	-57.2726	230.246	-57.8349	15.8362	244.815	-61.7285	1.07599	259.029	-56.2432	-11.3806	214.304	-33.0607	52.1559	209.716	-33.305	86.5197	191.344	-7.23474	61.7554	
66	0.55	143.844	-13.4989	63.942	125.575	-29.8915	39.0478	112.798	-33.9406	11.4411	104.781	-42.9947	-6.05349	184.726	2.93954	-8.95279	187.744	8.72053	-31.5068	196.208	10.761	-59.5483	211.942	-11.3857	-9.24726	219.163	-9.247	-37.8932	226.341	-11.4771	-69.8435	225.346	-34.3413	-7.00368	232.615	-36.3209	-34.6504	233.107	-40.4279	-56.8734	230.203	-57.4465	17.1293	240.255	-59.6704	4.21694	261.428	-58.3717	-10.8846	217.167	-32.8406	48.9719	211.474	-34.2185	83.6754	189.115	-7.9524	64.078	
67	0.558333	143.347	-12.6932	64.2347	125.911	-29.747	37.491	117.717	-36.3676	10.4859	104.526	-44.2321	-6.1191	185.249	3.49375	-8.29045	187.974	9.36677	-33.6637	197.642	9.57749	-58.5238	211.85	-8.8191	-13.0245	221.23	-9.28586	-36.5061	229.373	-10.4802	-65.1548	223.594	-35.8856	-2.81784	229.002	-37.4038	-32.1306	229.007	-45.2934	-58.0462	230.404	-59.6835	18.5357	243.064	-58.6132	-0.555128	259.63	-57.5035	-10.986	214.506	-32.2124	51.9514	213.393	-34.5995	86.8771	188.398	-5.00197	61.5421	
68	0.566667	144.065	-14.1075	64.3527	127.705	-30.7453	39.1281	113.147	-36.2987	11.7249	104.767	-44.82	-7.18636	184.595	2.82906	-5.90314	190.824	7.22761	-31.022	194.695	11.3525	-56.7914	215.712	-10.7317	-12.2166	221.845	-9.8391	-36.0258	231.018	-9.42397	-65.1243	223.508	-37.2236	-5.65392	224.701	-38.7523	-34.4819	222.149	-47.5413	-63.0204	229.345	-58.0329	16.0751	237.755	-58.7671	2.01779	258.93	-54.9489	-15.3863	213.094	-30.5157	51.9834	212.814	-33.3607	83.154	191.78	-7.97963	61.7568	
69	0.575	148.597	-14.8335	61.3938	128.633	-30.2033	37.8559	117.426	-36.4435	8.41195	108.047	-45.8749	-6.58618	183.16	7.23324	-9.41581	188.507	10.2829	-32.4682	194.371	12.1324	-56.4878	212.801	-8.87938	-10.367	219.697	-6.19883	-36.4175	232.465	-9.97359	-64.9635	220.446	-36.5291	-5.4554	220.016	-39.6071	-35.1149	217.462	-54.5471	-61.7208	227.983	-55.5403	13.2121	239.421	-61.3088	2.95816	255.603	-57.2956	-13.3457	215.91	-31.6971	49.2837	209.331	-30.64	85.8782	187.388	-6.49442	65.332	
70	0.583333	148.069	-15.1852	63.8755	129.118	-30.9842	34.9481	115.977	-36.3797	8.83014	108.805	-45.9947	-10.3623	186.287	5.50217	-10.8617	188.563	10.8932	-33.4418	194.133	14.389	-60.8534	214.912	-11.4775	-9.23986	218.379	-5.35168	-34.7582	231.005	-8.91105	-62.5471	217.035	-35.3424	-7.26877	217.622	-40.2278	-36.9328	208.663	-52.2851	-61.8383	228.157	-54.9862	12.7737	240.413	-59.2538	-2.08441	253.035	-52.9441	-14.5459	214.973	-32.8741	47.7307	211.085	-32.207	81.1142	191.357	-5.27522	63.0309	
71	0.591667	148.025	-14.9401	62.1749	125.969	-29.7677	36.0829	122.064	-39.6092	7.08605	111.105	-48.8279	-14.142	184.499	6.82058	-8.26785	190.634	9.05523	-35.0451	193.038	13.3165	-56.6997	212.795	-7.64157	-12.5889	219.555	-4.92606	-35.3629	229.96	-4.84224	-67.6571	216.646	-36.0689	-10.0772	216.66	-45.4197	-37.4853	203.215	-57.068	-64.1582	226.623	-57.0171	15.0767	236.805	-56.1327	-0.581716	252.027	-53.234	-14.8119	216.225	-31.754	51.1927	210.001	-32.6893	86.1837	188.506	-7.6778	65.9793	
72	0.6	148.363	-15.5736	65.8097	128.65	-30.8784	32.923	123.468	-39.8198	6.43688	115.712	-50.7162	-13.8123	185.751	4.69579	-5.54984	190.517	10.0866	-35.3369	195.987	11.7485	-59.1729	213.472	-9.70499	-11.0539	222.843	-8.21934	-37.2196	228.86	-6.72339	-64.5949	215.742	-36.1878	-8.39681	210.543	-44.2295	-40.6928	199.765	-62.1797	-61.1762	225.175	-55.1548	15.5307	238.439	-56.2449	-4.45797	257.498	-53.2325	-16.5515	215.797	-31.7941	50.9081	213.51	-33.727	81.1392	188.881	-5.18367	61.5242	
73	0.608333	149.138	-14.8714	62.073	125.407	-30.1972	34.722	123.956	-41.0104	7.94985	117.549	-50.6589	-12.6743	184.694	6.67086	-7.09599	186.032	12.6098	-32.7941	193.555	13.1759	-55.4873	212.624	-9.01891	-10.7087	220.165	-8.76992	-34.8957	228.941	-8.06745	-64.4821	214.003	-35.8308	-8.44222	211.059	-48.2101	-41.0334	194.648	-63.3661	-59.5165	225.774	-56.5905	15.1399	239.4	-58.8718	-1.78033	257.394	-51.7064	-17.3399	213.063	-31.2958	48.1445	210.899	-33.6425	83.9281	188.346	-6.43878	64.9425	
74	0.616667	148.92	-16.0272	63.0502	129.926	-31.5538	31.8832	125.278	-41.1208	7.74489	121.694	-52.7013	-14.3012	184.295	6.53087	-7.4954	188.299	12.1386	-34.5853	196.353	10.034	-57.0702	212.607	-9.47794	-11.7406	222.764	-9.93254	-37.9417	231.383	-10.4973	-63.3819	214.371	-36.9419	-8.87335	206.281	-50.9371	-42.9581	191.62	-64.0785	-56.7262	225.786	-56.1622	14.5416	239.508	-57.1324	-4.57103	254.183	-50.1339	-20.4171	215.895	-33.1065	46.9945	211.124	-34.1159	84.2041	190.686	-5.45095	61.0318	
75	0.625	148.665	-14.6686	62.4639	127.999	-30.2645	34.279	124.004	-40.2409	8.05315	120.292	-51.7329	-17.8244	184.619	7.10881	-9.57802	188.057	10.8568	-34.3187	193.352	13.4709	-57.9912	210.816	-8.27691	-8.73211	221.109	-7.15853	-38.8938	231.753	-10.0453	-68.3236	213.596	-38.8668	-13.8781	205.19	-47.3387	-39.1551	185.619	-66.3386	-54.3242	225.16	-55.7758	15.5848	236.317	-57.5247	-0.120083	253.913	-51.4664	-18.5025	216.329	-32.9776	47.8597	211.131	-34.7193	83.4325	190.732	-3.07458	62.0578	
76	0.633333	148.764	-14.7027	64.6376	129.862	-29.932	29.6189	127.257	-40.9063	5.90384	121.154	-52.7842	-16.9449	186.222	5.47668	-5.41193	185.634	12.822	-32.242	194.932	11.7339	-61.2262	211.814	-8.4967	-10.3173	221.671	-9.17853	-37.8715	227.929	-10.2636	-65.2985	211.038	-37.1398	-10.2422	201.109	-51.3628	-41.4456	181.233	-67.6876	-51.8594	223.669	-54.5475	14.4139	234.805	-56.1675	-0.868346	251.865	-48.3736	-19.3963	212.828	-32.485	52.5164	214.933	-34.4596	81.8348	190.99	-6.20955	67.3795	
